<svg width="98" height="42" viewBox="0 0 98 42" fill="none" xmlns="http://www.w3.org/2000/svg">
<path d="M11.2388 0.86664C13.352 0.86664 15.0457 1.50372 16.3198 2.77787C17.594 4.05203 18.2311 5.74572 18.2311 7.85895V16.3896C18.2311 17.788 17.8115 18.9068 16.9725 19.7459C16.1334 20.5849 15.0146 21.0045 13.6162 21.0045H13.5695V21.0511H13.6162C15.0146 21.0511 16.1334 21.4706 16.9725 22.3097C17.8115 23.1488 18.2311 24.2676 18.2311 25.666V34.15C18.2311 36.2633 17.594 37.9569 16.3198 39.2311C15.0457 40.5053 13.352 41.1423 11.2388 41.1423H0.563846V0.86664H11.2388ZM4.24646 19.1865H11.2854C12.2798 19.1865 13.0723 18.8913 13.6628 18.3008C14.2532 17.7103 14.5485 16.9179 14.5485 15.9234V7.76572C14.5485 6.77126 14.2532 5.9788 13.6628 5.38833C13.0723 4.79787 12.2798 4.50264 11.2854 4.50264H4.24646V19.1865ZM4.24646 37.5063H11.2854C12.2798 37.5063 13.0723 37.2111 13.6628 36.6206C14.2532 36.0302 14.5485 35.2377 14.5485 34.2433V26.0856C14.5485 25.0911 14.2532 24.2986 13.6628 23.7082C13.0723 23.1177 12.2798 22.8225 11.2854 22.8225H4.24646V37.5063ZM20.6825 7.62587C20.6825 5.51264 21.3196 3.81895 22.5937 2.5448C23.8679 1.27064 25.5616 0.633564 27.6748 0.633564H31.8236C33.9368 0.633564 35.6305 1.27064 36.9047 2.5448C38.1788 3.81895 38.8159 5.51264 38.8159 7.62587V34.3831C38.8159 36.4963 38.1788 38.19 36.9047 39.4642C35.6305 40.7383 33.9368 41.3754 31.8236 41.3754H27.6748C25.5616 41.3754 23.8679 40.7383 22.5937 39.4642C21.3196 38.19 20.6825 36.4963 20.6825 34.3831V7.62587ZM27.6282 37.6928H31.8702C32.8647 37.6928 33.6571 37.3976 34.2476 36.8071C34.838 36.2166 35.1333 35.4242 35.1333 34.4297V7.57926C35.1333 6.5848 34.838 5.79233 34.2476 5.20187C33.6571 4.61141 32.8647 4.31618 31.8702 4.31618H27.6282C26.6337 4.31618 25.8413 4.61141 25.2508 5.20187C24.6604 5.79233 24.3651 6.5848 24.3651 7.57926V34.4297C24.3651 35.4242 24.6604 36.2166 25.2508 36.8071C25.8413 37.3976 26.6337 37.6928 27.6282 37.6928ZM41.2673 41.1423V0.86664H42.6192C43.4583 0.86664 44.2196 1.09972 44.9033 1.56587C45.587 2.03203 46.0687 2.6691 46.3484 3.4771L56.6504 32.2388V0.86664H60.333V41.1423H58.9812C58.1421 41.1423 57.3807 40.9093 56.697 40.4431C56.0133 39.9769 55.5316 39.3399 55.2519 38.5319L44.9499 9.77018V41.1423H41.2673ZM62.0634 4.50264V0.86664H80.4765V4.50264H73.1112V41.1423H69.4286V4.50264H62.0634ZM81.5338 0.86664H97.8026V4.50264H85.2164V19.1865H93.9801V19.5594C93.9801 20.5539 93.6849 21.3463 93.0944 21.9368C92.5039 22.5273 91.7115 22.8225 90.717 22.8225H85.2164V37.5063H97.8026V41.1423H81.5338V0.86664Z" fill="#0C1D34"/>
</svg>
