<svg width="260" height="66" viewBox="0 0 260 66" fill="none" xmlns="http://www.w3.org/2000/svg">
<path d="M0.0507812 5.91797L4.20117 4.35547C5.24284 3.96484 7.96094 2.61393 12.3555 0.302734H14.5039C15.0573 0.302734 15.5456 0.335286 15.9688 0.400391C16.0013 1.3444 16.0176 1.99544 16.0176 2.35352L15.9688 4.35547L16.2129 22.7148L16.1641 29.7461C17.1081 28.7044 18.3613 27.6139 19.9238 26.4746C20.2493 26.2467 21.1445 25.791 22.6094 25.1074C24.0742 24.3913 25.2461 23.9355 26.125 23.7402C27.6875 23.3822 29.071 23.2031 30.2754 23.2031C33.498 23.2031 36.1185 23.61 38.1367 24.4238C40.1875 25.2376 42.1081 26.5234 43.8984 28.2812C45.7214 30.0065 47.2513 32.4316 48.4883 35.5566C49.2695 37.5423 49.6602 39.9674 49.6602 42.832C49.6602 44.6875 49.3346 46.7871 48.6836 49.1309C48.0651 51.4421 47.0397 53.7044 45.6074 55.918C44.5658 57.513 43.0846 59.0755 41.1641 60.6055C39.276 62.1354 37.0951 63.3561 34.6211 64.2676C32.9935 64.8861 30.2103 65.1953 26.2715 65.1953C22.6582 65.1953 18.6055 63.8607 14.1133 61.1914C12.9414 60.4753 12.0951 59.987 11.5742 59.7266C10.9232 60.6706 10.1908 61.8099 9.37695 63.1445C8.5957 64.4792 8.05859 65.3581 7.76562 65.7812L5.32422 65.8301C5.32422 65.0488 5.35677 64.2513 5.42188 63.4375C5.51953 62.6237 5.56836 61.8587 5.56836 61.1426L5.51953 57.5293L5.66602 56.2598C5.73112 55.7389 5.76367 54.8275 5.76367 53.5254V17.832C5.76367 14.2513 5.64974 11.9238 5.42188 10.8496C5.35677 10.5241 5.22656 10.2962 5.03125 10.166C4.86849 10.0033 3.20833 9.33594 0.0507812 8.16406V5.91797ZM16.3105 32.627L16.2617 40.2441C16.2617 48.6751 16.457 53.7207 16.8477 55.3809C17.2708 57.041 18.3613 58.4896 20.1191 59.7266C21.877 60.931 23.7324 61.5332 25.6855 61.5332C27.1178 61.5332 28.5501 61.2402 29.9824 60.6543C31.4147 60.0684 32.5052 59.4173 33.2539 58.7012C34.3932 57.627 35.2396 56.4876 35.793 55.2832C36.6719 53.3952 37.2253 51.6699 37.4531 50.1074C37.7461 47.959 37.8926 46.25 37.8926 44.9805C37.8926 42.3112 37.3392 39.6745 36.2324 37.0703C35.1582 34.4336 33.6283 32.4805 31.6426 31.2109C29.6895 29.9089 27.5573 29.2578 25.2461 29.2578C23.8138 29.2578 22.1211 29.6647 20.168 30.4785C18.2148 31.2923 16.929 32.0085 16.3105 32.627ZM95.5586 29.1113C97.6419 31.1296 99.1882 33.457 100.197 36.0938C101.239 38.6979 101.76 41.1556 101.76 43.4668C101.76 47.8288 101.092 51.3444 99.7578 54.0137C97.7396 58.0501 95.0215 61.0286 91.6035 62.9492C88.1855 64.8698 84.2142 65.8301 79.6895 65.8301C74.6113 65.8301 70.2982 64.6908 66.75 62.4121C63.2344 60.1335 60.7116 57.5456 59.1816 54.6484C57.6842 51.7513 56.9355 48.1543 56.9355 43.8574C56.9355 41.6764 57.2936 39.4954 58.0098 37.3145C58.7259 35.1009 59.7025 33.1803 60.9395 31.5527C62.209 29.9251 63.5924 28.5579 65.0898 27.4512C67.2708 25.8887 69.4518 24.7819 71.6328 24.1309C73.8464 23.4473 76.5156 23.1055 79.6406 23.1055C86.444 23.1055 91.75 25.1074 95.5586 29.1113ZM68.8496 46.0059C69.1426 50.0423 69.3542 52.3698 69.4844 52.9883C69.9076 55.1693 70.5749 57.041 71.4863 58.6035C72.1048 59.6126 73.1302 60.5078 74.5625 61.2891C75.9948 62.0703 77.7038 62.4609 79.6895 62.4609C82.0658 62.4609 84.0677 61.7122 85.6953 60.2148C87.3229 58.6849 88.4948 56.3086 89.2109 53.0859C89.6667 50.9701 89.8945 47.5033 89.8945 42.6855C89.8945 36.7611 88.918 32.5781 86.9648 30.1367C85.0117 27.6628 82.4401 26.4258 79.25 26.4258C76.7435 26.4258 74.6602 27.1257 73 28.5254C71.3724 29.9251 70.2331 31.9922 69.582 34.7266C69.1589 36.4844 68.9147 40.2441 68.8496 46.0059ZM107.424 62.2168C108.27 61.8262 109.051 61.5658 109.768 61.4355C111.558 61.1426 112.6 60.8984 112.893 60.7031C113.381 60.4102 113.706 60.0521 113.869 59.6289C114.064 58.9779 114.162 57.5456 114.162 55.332V51.084L114.211 47.6172L114.064 42.4902V39.4141C114.064 37.3633 113.902 35.6868 113.576 34.3848C113.446 33.8965 113.039 33.4082 112.355 32.9199C111.444 32.2689 109.898 31.6341 107.717 31.0156L107.668 28.6719C108.091 28.5417 108.465 28.4603 108.791 28.4277C109.149 28.3626 110.467 28.0371 112.746 27.4512C114.536 26.8001 115.692 26.3444 116.213 26.084C116.376 25.9863 116.636 25.8398 116.994 25.6445C117.385 25.319 117.824 24.9935 118.312 24.668C119.289 23.9844 120.461 22.7962 121.828 21.1035L124.416 20.9082L124.318 26.4258C124.286 26.9792 124.27 27.4186 124.27 27.7441C124.27 28.0046 124.286 28.7533 124.318 29.9902C127.02 27.6465 129.478 26.0189 131.691 25.1074C134.589 23.903 137.339 23.3008 139.943 23.3008C143.003 23.3008 145.689 24.0658 148 25.5957C150.311 27.0931 151.825 28.8346 152.541 30.8203C153.257 32.806 153.615 36.8099 153.615 42.832L153.42 58.75C153.42 59.4987 153.55 60.1172 153.811 60.6055C154.136 60.8659 155.031 61.11 156.496 61.3379L158.889 61.7773C159.182 62.2005 159.328 62.7214 159.328 63.3398C159.328 63.7305 159.312 64.2676 159.279 64.9512L149.709 64.2676L146.877 64.3652H144.631L138.186 64.8535H136.525C136.493 64.4303 136.477 64.1048 136.477 63.877C136.477 63.291 136.509 62.6562 136.574 61.9727C137.03 61.875 138.169 61.7122 139.992 61.4844C140.48 61.4193 141.018 61.3053 141.604 61.1426C142.255 60.8822 142.629 60.6217 142.727 60.3613C142.987 59.8079 143.117 58.75 143.117 57.1875C143.117 54.4531 143.085 52.3535 143.02 50.8887L143.068 45.2246C143.101 38.3561 142.678 34.0755 141.799 32.3828C140.562 29.9414 138.706 28.7207 136.232 28.7207C134.41 28.7207 132.521 29.1927 130.568 30.1367C128.615 31.0482 126.597 32.4479 124.514 34.3359L124.416 35.166L124.514 38.2422L124.465 41.5137L124.66 49.3262L124.562 50.5469C124.562 55.8529 124.774 58.8477 125.197 59.5312C125.62 60.2148 127.232 60.9635 130.031 61.7773C130.129 62.3307 130.178 62.7376 130.178 62.998C130.178 63.3887 130.064 63.9909 129.836 64.8047C128.827 64.8372 127.98 64.8535 127.297 64.8535C126.613 64.8535 125.539 64.7559 124.074 64.5605L118.85 64.4629C116.245 64.4629 112.486 64.5768 107.57 64.8047C107.44 64.4792 107.375 64.1374 107.375 63.7793C107.375 63.5189 107.391 62.998 107.424 62.2168ZM163.576 27.6953C167.417 26.0677 170.184 24.4727 171.877 22.9102C173.602 21.3477 175.441 18.8086 177.395 15.293H180.129C180.422 16.1393 180.568 17.0345 180.568 17.9785C180.568 19.6712 180.552 20.9896 180.52 21.9336L180.373 24.8145C180.373 24.9772 180.389 25.3516 180.422 25.9375L181.545 25.9863C181.708 25.9863 183.238 25.9212 186.135 25.791C186.363 25.791 187.583 25.7585 189.797 25.6934C189.992 26.5723 190.09 27.3535 190.09 28.0371C190.09 28.7858 189.976 29.6647 189.748 30.6738C188.674 30.804 187.86 30.8691 187.307 30.8691C187.046 30.8691 186.525 30.8366 185.744 30.7715H183.205L182.326 30.7227L179.982 30.8203L179.885 49.4727C179.852 53.0859 179.917 55.3483 180.08 56.2598C180.275 57.1387 180.666 57.985 181.252 58.7988C182.001 59.1569 182.831 59.3359 183.742 59.3359C184.621 59.3359 185.272 59.2546 185.695 59.0918C186.118 58.929 186.835 58.457 187.844 57.6758C188.039 57.513 188.348 57.2852 188.771 56.9922C189.553 57.6107 190.188 58.2292 190.676 58.8477L190.871 59.4336C189.732 61.224 188.12 62.64 186.037 63.6816C183.986 64.6908 181.789 65.1953 179.445 65.1953C176.418 65.1953 173.96 64.235 172.072 62.3145C170.184 60.3939 169.24 57.4154 169.24 53.3789L169.436 44.7852V30.8691L167.922 30.8203L164.406 30.8691L163.771 30.7227C163.576 30.4297 163.479 30.153 163.479 29.8926C163.479 29.6973 163.511 28.9648 163.576 27.6953ZM196.145 38.8281C196.991 36.0612 197.74 34.222 198.391 33.3105C200.214 30.6413 202.15 28.5579 204.201 27.0605C206.285 25.5632 208.156 24.5703 209.816 24.082C211.965 23.4635 213.706 23.1543 215.041 23.1543C218.101 23.1543 220.575 23.3984 222.463 23.8867C224.351 24.3424 225.93 25.0098 227.199 25.8887C229.022 27.1582 230.487 28.444 231.594 29.7461C232.701 31.0482 233.596 32.5781 234.279 34.3359C234.995 36.0938 235.386 38.2259 235.451 40.7324L230.031 40.6348C228.534 40.6348 225.246 40.4883 220.168 40.1953C218.28 40.0651 216.978 40 216.262 40C216.034 40 214.276 40.0163 210.988 40.0488H206.789C206.724 40.5046 206.691 40.8952 206.691 41.2207C206.691 42.946 206.903 44.7689 207.326 46.6895C207.749 48.5775 208.384 50.2539 209.23 51.7188C210.077 53.151 211.118 54.388 212.355 55.4297C213.625 56.4714 214.927 57.2201 216.262 57.6758L219.094 58.6035C221.6 58.6035 223.277 58.5221 224.123 58.3594C225.686 58.0339 227.053 57.627 228.225 57.1387C229.429 56.6178 230.878 55.7552 232.57 54.5508C233.742 55.3971 234.719 56.1621 235.5 56.8457C232.635 60.0033 229.657 62.2982 226.564 63.7305C223.505 65.1302 220.07 65.8301 216.262 65.8301C213.69 65.8301 211.59 65.6022 209.963 65.1465C207.782 64.5605 205.812 63.6654 204.055 62.4609C202.297 61.2565 200.783 59.7591 199.514 57.9688C198.244 56.1784 197.3 54.3392 196.682 52.4512C195.868 49.9772 195.461 47.9915 195.461 46.4941C195.461 43.6621 195.689 41.1068 196.145 38.8281ZM224.514 36.7285C224.481 34.9056 224.123 33.1641 223.439 31.5039C222.756 29.8438 221.698 28.5579 220.266 27.6465C218.833 26.7025 217.385 26.2305 215.92 26.2305C213.739 26.2305 211.77 27.1908 210.012 29.1113C208.254 31.0319 207.261 33.6361 207.033 36.9238L218.166 36.9727C218.882 36.9727 219.891 36.9238 221.193 36.8262C222.137 36.7285 222.805 36.6797 223.195 36.6797C223.488 36.6797 223.928 36.696 224.514 36.7285ZM251.76 51.7676C253.811 51.7676 255.536 52.4186 256.936 53.7207C258.368 55.0228 259.084 56.5039 259.084 58.1641C259.084 60.3451 258.645 61.9727 257.766 63.0469C256.203 64.9023 254.315 65.8301 252.102 65.8301C250.018 65.8301 248.309 65.1628 246.975 63.8281C245.64 62.4935 244.973 60.8008 244.973 58.75C244.973 57.4154 245.298 56.2109 245.949 55.1367C246.438 54.2904 247.414 53.3789 248.879 52.4023C249.465 51.9792 250.425 51.7676 251.76 51.7676Z" fill="white"/>
</svg>
